<?xml version="1.0" encoding="UTF-8"?>
<svg xmlns="http://www.w3.org/2000/svg" viewBox="0 0 1600 500" width="1600" height="500" role="img" aria-label="Government Tender Enquiry — HT Power Infrastructure">
  <title>Tender / Government Enquiry CTA</title>
  <defs>
    <linearGradient id="dawn" x1="0" y1="0" x2="0" y2="1">
      <stop offset="0%" stop-color="#0B2A4A"/>
      <stop offset="60%" stop-color="#1F4E8C"/>
      <stop offset="100%" stop-color="#E89B1C" stop-opacity="0.6"/>
    </linearGradient>
    <linearGradient id="overlay" x1="0" y1="0" x2="1" y2="0">
      <stop offset="0%" stop-color="#0B2A4A" stop-opacity="0.95"/>
      <stop offset="60%" stop-color="#0B2A4A" stop-opacity="0.6"/>
      <stop offset="100%" stop-color="#0B2A4A" stop-opacity="0.2"/>
    </linearGradient>
  </defs>
  <rect width="1600" height="500" fill="url(#dawn)"/>

  <!-- Sun / glow on right -->
  <circle cx="1300" cy="300" r="160" fill="#F5B547" opacity="0.35"/>
  <circle cx="1300" cy="300" r="60" fill="#F5B547" opacity="0.6"/>

  <!-- Distant pylon row 1 (faded) -->
  <g opacity="0.45" stroke="#0A2240" stroke-width="2" fill="none" stroke-linecap="round">
    <g transform="translate(900, 200)">
      <line x1="-10" y1="160" x2="-4" y2="0"/>
      <line x1="10" y1="160" x2="4" y2="0"/>
      <line x1="-20" y1="20" x2="20" y2="20"/>
      <line x1="-26" y1="50" x2="26" y2="50"/>
      <line x1="-30" y1="80" x2="30" y2="80"/>
      <line x1="-10" y1="160" x2="10" y2="140"/>
      <line x1="10" y1="160" x2="-10" y2="140"/>
      <line x1="-8" y1="120" x2="8" y2="100"/>
      <line x1="8" y1="120" x2="-8" y2="100"/>
      <line x1="-6" y1="80" x2="6" y2="60"/>
      <line x1="6" y1="80" x2="-6" y2="60"/>
    </g>
    <g transform="translate(1100, 220)">
      <line x1="-10" y1="140" x2="-4" y2="0"/>
      <line x1="10" y1="140" x2="4" y2="0"/>
      <line x1="-18" y1="20" x2="18" y2="20"/>
      <line x1="-22" y1="50" x2="22" y2="50"/>
      <line x1="-26" y1="80" x2="26" y2="80"/>
      <line x1="-10" y1="140" x2="10" y2="120"/>
      <line x1="10" y1="140" x2="-10" y2="120"/>
      <line x1="-8" y1="100" x2="8" y2="80"/>
      <line x1="8" y1="100" x2="-8" y2="80"/>
    </g>
    <g transform="translate(1280, 240)">
      <line x1="-9" y1="120" x2="-3" y2="0"/>
      <line x1="9" y1="120" x2="3" y2="0"/>
      <line x1="-16" y1="18" x2="16" y2="18"/>
      <line x1="-20" y1="46" x2="20" y2="46"/>
      <line x1="-9" y1="120" x2="9" y2="100"/>
      <line x1="9" y1="120" x2="-9" y2="100"/>
    </g>
    <g transform="translate(1440, 260)">
      <line x1="-8" y1="100" x2="-3" y2="0"/>
      <line x1="8" y1="100" x2="3" y2="0"/>
      <line x1="-14" y1="16" x2="14" y2="16"/>
    </g>
  </g>
  <!-- Cables between -->
  <g stroke="#F7F9FC" stroke-width="0.8" fill="none" opacity="0.4">
    <path d="M 880,220 Q 990,250 1080,240"/>
    <path d="M 920,220 Q 1010,250 1120,240"/>
    <path d="M 1080,260 Q 1180,280 1260,260"/>
    <path d="M 1120,260 Q 1200,280 1300,260"/>
    <path d="M 1260,288 Q 1350,300 1432,280"/>
    <path d="M 1300,288 Q 1380,300 1448,280"/>
  </g>

  <!-- Foreground pylon (large, sharp) -->
  <g transform="translate(1450, 180)" stroke="#0A1520" stroke-width="2.4" fill="none" stroke-linecap="round">
    <line x1="-22" y1="280" x2="-8" y2="0"/>
    <line x1="22" y1="280" x2="8" y2="0"/>
    <line x1="-40" y1="30" x2="40" y2="30"/>
    <line x1="-50" y1="80" x2="50" y2="80"/>
    <line x1="-60" y1="140" x2="60" y2="140"/>
    <line x1="-22" y1="280" x2="22" y2="260"/>
    <line x1="22" y1="280" x2="-22" y2="260"/>
    <line x1="-18" y1="220" x2="18" y2="200"/>
    <line x1="18" y1="220" x2="-18" y2="200"/>
    <line x1="-15" y1="160" x2="15" y2="140"/>
    <line x1="15" y1="160" x2="-15" y2="140"/>
    <line x1="-12" y1="100" x2="12" y2="80"/>
    <line x1="12" y1="100" x2="-12" y2="80"/>
    <line x1="-10" y1="50" x2="10" y2="30"/>
    <line x1="10" y1="50" x2="-10" y2="30"/>
  </g>

  <!-- Ground -->
  <rect x="0" y="430" width="1600" height="70" fill="#061629"/>
  <line x1="0" y1="430" x2="1600" y2="430" stroke="#E89B1C" stroke-width="1" opacity="0.5"/>

  <!-- Left dark overlay for legibility -->
  <rect width="1100" height="500" fill="url(#overlay)"/>

  <!-- Eyebrow text -->
  <text x="120" y="160" font-family="Inter, Arial, sans-serif" font-size="14" fill="#E89B1C" font-weight="700" letter-spacing="4">GOVERNMENT TENDERS</text>
  <!-- Headline -->
  <text x="120" y="220" font-family="Inter, Arial, sans-serif" font-size="48" fill="#F7F9FC" font-weight="800" letter-spacing="-1">Responding to MSEDCL, MSETCL,</text>
  <text x="120" y="270" font-family="Inter, Arial, sans-serif" font-size="48" fill="#F7F9FC" font-weight="800" letter-spacing="-1">PWD, MIDC and MJP tenders.</text>
  <!-- Sub copy -->
  <text x="120" y="320" font-family="Inter, Arial, sans-serif" font-size="18" fill="#F7F9FC" opacity="0.85" font-weight="400">Share your tender reference. Our liaison desk reverts with prequalification</text>
  <text x="120" y="346" font-family="Inter, Arial, sans-serif" font-size="18" fill="#F7F9FC" opacity="0.85" font-weight="400">documents within one working day.</text>

  <!-- CTA button -->
  <g transform="translate(120, 380)">
    <rect width="280" height="56" rx="4" fill="#E89B1C"/>
    <text x="140" y="35" font-family="Inter, Arial, sans-serif" font-size="16" fill="#0B2A4A" text-anchor="middle" font-weight="700" letter-spacing="1">SUBMIT TENDER ENQUIRY →</text>
  </g>
</svg>
